<svg xmlns="http://www.w3.org/2000/svg" width="182" height="246" viewBox="0 0 182 246">
    <g fill="none" fill-rule="evenodd" transform="translate(1)">
        <path fill="#FFF" fill-rule="nonzero" d="M139.373 47.69v134.385H34.833V29.881h79.798"/>
        <path fill="#E0E0E0" fill-rule="nonzero" d="M133.769 49.383h4.762v132.692h-4.762zM34.833 29.881h79.405v5.189H34.833z"/>
        <path fill="#DAE3E6" fill-rule="nonzero" stroke="#000" stroke-width="1.687" d="M114.692 30.398s-2.531 18.468 1.93 28.004c0 0 7.47-5.916 21.565-9.776l-21.504-18.745-1.99.517z"/>
        <path stroke="#000" stroke-linecap="round" stroke-width="2.53" d="M47.157 182.075H34.833V63.431"/>
        <path stroke="#000" stroke-linecap="round" stroke-linejoin="round" stroke-width="2.53" d="M34.728 53.237V29.88h81.863l22.677 17.939v134.255h-81.5"/>
        <ellipse cx="41.468" cy="39.552" fill="#333" fill-rule="nonzero" rx="1.61" ry="1.613"/>
        <ellipse cx="46.359" cy="39.552" fill="#333" fill-rule="nonzero" rx="1.61" ry="1.613"/>
        <ellipse cx="51.096" cy="39.552" fill="#333" fill-rule="nonzero" rx="1.61" ry="1.613"/>
        <ellipse cx="41.794" cy="58.574" fill="#E0E0E0" fill-rule="nonzero" rx="2.083" ry="2.087"/>
        <ellipse cx="105.647" cy="92.556" fill="#EFE5E4" fill-rule="nonzero" rx="6.427" ry="4.247" transform="rotate(-13.83 105.647 92.556)"/>
        <path fill="#C49391" fill-rule="nonzero" d="M77.466 100.835c.172-.812.421-1.605.743-2.37a11.632 11.632 0 0 1 3.435-4.402 9.203 9.203 0 0 1 4.989-1.514c3.594-.148 7.987 2.727 9.332 7.744.344 1.3.535 2.573 0 3.81a2.728 2.728 0 0 1-2.5 1.804c-1.032-.043-12.645.468-14.457-.443a3.033 3.033 0 0 1-1.438-1.662 5.045 5.045 0 0 1-.178-2.536c.012-.144.037-.287.074-.431z"/>
        <path fill="#919191" fill-rule="nonzero" stroke="#898989" stroke-width="1.231" d="M49.194 218.344l105.768-11.217.511 4.847L49.705 223.19z"/>
        <path fill="#D2D3D5" fill-rule="nonzero" stroke="#C6C6C6" stroke-linecap="round" stroke-linejoin="round" stroke-width="1.847" d="M49.193 224.265l-39.505-2.393 5.048-15.68 38.245 1.769z"/>
        <path fill="#D2D3D5" fill-rule="nonzero" stroke="#C6C6C6" stroke-width="1.939" d="M1.288 223.86l63.54 10.419-.789 4.839L.499 228.7z"/>
        <path fill="#D2D3D5" fill-rule="nonzero" stroke="#C6C6C6" stroke-linecap="round" stroke-linejoin="round" stroke-width="1.847" d="M65.21 239.963l57.347-10.083.85 4.858-57.348 10.084z"/>
        <path fill="#D2D3D5" fill-rule="nonzero" stroke="#C6C6C6" stroke-linecap="round" stroke-linejoin="round" stroke-width="1.847" d="M54.998 223.406l106.141 6.805-.306 4.798-106.141-6.805z"/>
        <path fill="#000" fill-rule="nonzero" d="M34.49 56.487h.679c.51 0 .923.414.923.924v1.883c0 .51-.413.924-.923.924h-.679a.923.923 0 0 1-.923-.924v-1.883c0-.51.413-.924.923-.924z"/>
        <g stroke="#919191" stroke-linecap="round" stroke-width="1.687" opacity=".63">
            <path d="M64.146 56.838h44.021M74.824 63.148h22.671"/>
        </g>
        <path fill="#000" fill-rule="nonzero" d="M54.444 181.73v.684c0 .51-.414.924-.924.924h-1.875a.923.923 0 0 1-.923-.924v-.684c0-.51.413-.923.923-.923h1.875c.51 0 .924.413.924.923z"/>
        <path fill="#E0E0E0" fill-rule="nonzero" d="M41.293 63.179h1.002c.758 0 1.373.614 1.373 1.373v17.68c0 .758-.615 1.372-1.373 1.372h-1.002a1.373 1.373 0 0 1-1.373-1.372v-17.68c0-.759.614-1.373 1.373-1.373z"/>
        <ellipse cx="38.2" cy="8.089" fill="#050505" fill-rule="nonzero" rx="1" ry="1"/>
        <ellipse cx="60.127" cy="13.672" fill="#050505" fill-rule="nonzero" rx="1.794" ry="1.798"/>
        <path fill="#050505" fill-rule="nonzero" d="M17.685 21.94l.577 1.065 1.063.579-1.063.584-.577 1.065-.584-1.065-1.063-.584 1.063-.58z"/>
        <ellipse cx="104.155" cy="14.965" fill="#050505" fill-rule="nonzero" rx="1" ry="1"/>
        <ellipse cx="130.955" cy="12.306" fill="#050505" fill-rule="nonzero" rx="1.978" ry="1.982"/>
        <path fill="#050505" fill-rule="nonzero" d="M92.635 0l.584 1.065 1.063.579-1.063.584-.584 1.065-.577-1.065-1.07-.584 1.07-.579z"/>
        <ellipse cx="13.47" cy="50.134" fill="#050505" fill-rule="nonzero" rx="1" ry="1"/>
        <ellipse cx="4.61" cy="64.952" fill="#050505" fill-rule="nonzero" rx="1.542" ry="1.545"/>
        <path fill="#050505" fill-rule="nonzero" d="M15.16 80.163l.577 1.065 1.063.579-1.063.585-.577 1.065-.584-1.065-1.063-.585 1.063-.579z"/>
        <ellipse cx="164.219" cy="52.664" fill="#050505" fill-rule="nonzero" rx="1" ry="1"/>
        <ellipse cx="155.359" cy="67.482" fill="#050505" fill-rule="nonzero" rx="1.542" ry="1.545"/>
        <path fill="#050505" fill-rule="nonzero" d="M165.903 82.693l.583 1.065 1.063.585-1.063.579-.583 1.065-.578-1.065-1.063-.579 1.063-.585zM147.378 32.067l.578 1.064 1.063.58-1.063.584-.578 1.065-.583-1.065-1.063-.585 1.063-.579z"/>
        <ellipse cx="74.185" cy="81.659" fill="#161616" fill-rule="nonzero" rx="6.672" ry="6.685"/>
        <ellipse cx="99.597" cy="81.659" fill="#161616" fill-rule="nonzero" rx="6.672" ry="6.685"/>
        <path fill="#D2D3D5" fill-rule="nonzero" stroke="#C6C6C6" stroke-linecap="round" stroke-linejoin="round" stroke-width="1.847" d="M94.618 212.822l55.63 17.4-1.458 4.68-55.63-17.399z"/>
        <path fill="#D2D3D5" fill-rule="nonzero" stroke="#C6C6C6" stroke-linecap="round" stroke-linejoin="round" stroke-width="1.847" d="M121.041 221.409l57.398-10.093.845 4.83-57.398 10.093z"/>
        <ellipse cx="67.506" cy="92.543" fill="#EFE5E4" fill-rule="nonzero" rx="4.249" ry="6.425" transform="rotate(-76.32 67.506 92.543)"/>
        <path stroke="#333" stroke-width=".6" d="M36.092 46.792l77.888-.124"/>
        <path fill="#333" fill-rule="nonzero" d="M57.635 37.94h51.175c.65 0 1.176.526 1.176 1.175v.874c0 .65-.526 1.176-1.176 1.176H57.635c-.65 0-1.175-.526-1.175-1.176v-.874c0-.65.526-1.176 1.175-1.176z"/>
        <path fill="#FFF" fill-rule="nonzero" d="M66.032 84.337l16.693-4.925s-2.083-8.932-12.515-6.464c-.006.013-8.35 3.35-4.178 11.389zM107.682 84.337l-16.693-4.925s2.083-8.932 12.515-6.464c.006.013 8.35 3.35 4.178 11.389z"/>
        <path fill="#FFF" stroke="#1A1A1A" stroke-linecap="round" stroke-width="2.53" d="M65.496 182.595h14.23v9.284h-14.23z"/>
        <path fill="#FFF" stroke="#1A1A1A" stroke-linecap="round" stroke-width="2.53" d="M73.06 191.873c-.114 0 .107 0 0 0-.108 0 0 0 0 0-14.23.287-12.935 8.123-12.935 8.123h24.972s1.232-7.836-12.037-8.123zM94.41 182.525h14.23v9.284H94.41z"/>
        <path fill="#FFF" stroke="#1A1A1A" stroke-linecap="round" stroke-width="2.53" d="M101.974 191.777c-.114 0 .108 0 0 0-.107 0 0 0 0 0-14.23.287-12.934 8.123-12.934 8.123h24.971s1.245-7.81-12.037-8.123z"/>
        <path stroke="#282828" stroke-linecap="round" stroke-width="1.539" d="M63.347 86.596s8.976-1.988 12.736 8.262M110.858 87.415s-8.601-3.294-13.811 6.285"/>
        <path stroke="#282828" stroke-linecap="round" stroke-width="1.847" d="M160.189 200.7h7.379M16.42 200.7H149.46"/>
        <path stroke="#282828" stroke-linecap="round" stroke-width="1.878" d="M153.344 200.639h2.955"/>
        <path fill="#282828" fill-rule="nonzero" d="M13.789 200.697a.945.945 0 0 1-.945.946h-1.832a.945.945 0 0 1 0-1.89h1.832c.522 0 .945.422.945.944zM8.554 200.697a.945.945 0 0 1-.945.946H5.777a.945.945 0 0 1 0-1.89H7.61c.522 0 .945.422.945.944z"/>
        <path fill="#FFF" fill-rule="nonzero" stroke="#1A1A1A" stroke-width="2.565" d="M34.659 93.798v11.945c-6.669 2.316-8.942 18.077-1.52 21.393 3.268 1.46 11.905-1.021 18.088-6.186 1.075-.899 2.104-1.674 4.205-3.684 4.628-4.428 7.015-6.216 11-7.384a4.09 4.09 0 0 1 5.075 2.785 4.102 4.102 0 0 1-2.779 5.087c-2.304.675-7.225 5.794-13.842 10.537-6.617 4.742-15.201 9.086-24.593 7.027-6.932-1.52-10.155-8.71-10.823-12.037-2.11-10.504 3.018-24.365 15.189-29.483zM139.885 93.798v11.945c6.669 2.316 8.942 18.077 1.52 21.393-3.269 1.46-11.905-1.021-18.088-6.186-1.075-.899-2.105-1.674-4.205-3.684-4.628-4.428-7.015-6.216-11-7.384a4.09 4.09 0 0 0-5.075 2.785 4.102 4.102 0 0 0 2.779 5.087c2.304.675 7.225 5.794 13.842 10.537 6.616 4.742 15.201 9.086 24.592 7.027 6.933-1.52 10.156-8.71 10.824-12.037 2.11-10.504-3.019-24.365-15.189-29.483z"/>
    </g>
</svg>
